<svg width="137" height="136" viewBox="0 0 137 136" fill="none" xmlns="http://www.w3.org/2000/svg">
<path fill-rule="evenodd" clip-rule="evenodd" d="M136 68C136 105.003 105.779 135 68.4997 135C31.2207 135 1 105.003 1 68C1 30.9973 31.2207 1 68.4997 1C105.779 1 136 30.9973 136 68Z" stroke="white" stroke-opacity="0.301461" stroke-width="0.80465" stroke-dasharray="4.04 4.04"/>
<path fill-rule="evenodd" clip-rule="evenodd" d="M119 68C119 95.614 96.39 118 68.4997 118C40.6087 118 18 95.614 18 68C18 40.386 40.6087 18 68.4997 18C96.39 18 119 40.386 119 68Z" stroke="white" stroke-opacity="0.70788" stroke-width="0.80465" stroke-dasharray="4.06 4.06"/>
<path fill-rule="evenodd" clip-rule="evenodd" d="M91 93.8649L90.4584 96L37 82.4904L37.5408 80.3554C41.8182 81.436 45.136 77.323 45.6726 75.2098L48.7574 63.0416C51.2004 54.1863 59.2778 48.0589 68.4793 48.0814C69.2673 45.1443 72.292 43.4018 75.2335 44.1892C78.1757 44.9765 79.9218 47.9955 79.1324 50.9327C87.2021 55.429 91.3382 64.6974 89.2885 73.6929L86.3011 85.477C85.6671 87.9743 88.862 93.3243 91 93.8649Z" fill="#F5F5F5"/>
<path fill-rule="evenodd" clip-rule="evenodd" d="M54 89C54.5095 94.4588 59.3139 98.4685 64.7315 97.9558C67.682 97.6769 70.3516 96.0739 72 93.5909L54 89Z" fill="#1E7EB6"/>
<path fill-rule="evenodd" clip-rule="evenodd" d="M97.1298 56.0257C98.3938 57.5149 99.3431 59.2687 99.9884 61.1278C100.646 62.9877 100.967 64.9633 101 66.9404C101 67.9297 100.928 68.9175 100.797 69.8969C100.625 70.8714 100.426 71.8389 100.114 72.7762C99.5094 74.6515 98.596 76.4299 97.3514 77.9436C97.2976 78.0089 97.2015 78.0187 97.1348 77.9667C97.0832 77.9253 97.066 77.8579 97.0861 77.7989C97.7342 75.9925 98.2712 74.2106 98.6319 72.4027C98.6985 71.9463 98.7903 71.497 98.8677 71.0455C98.9208 70.5899 98.9911 70.1377 99.0312 69.6828C99.0613 69.2271 99.1216 68.7743 99.1409 68.3186C99.1481 67.8623 99.1703 67.4066 99.1682 66.951C99.1789 65.1262 98.971 63.3043 98.6089 61.4957C98.2368 59.6857 97.6769 57.9031 97.0044 56.0966C96.9907 56.0594 97.0101 56.018 97.0481 56.0047C97.0782 55.9934 97.1105 56.0033 97.1298 56.0257Z" fill="#1E7EB6"/>
<path fill-rule="evenodd" clip-rule="evenodd" d="M104.075 57.0145C105.312 58.4162 106.244 60.0788 106.894 61.8436C107.544 63.6105 107.92 65.4876 107.987 67.376C108.06 69.2638 107.826 71.1615 107.312 72.9692C106.8 74.7762 106.001 76.5031 104.874 77.9913C104.867 78.0006 104.853 78.0027 104.844 77.9963C104.837 77.9906 104.834 77.9813 104.836 77.9734C105.303 76.1822 105.694 74.4395 105.931 72.6876C106.168 70.9364 106.246 69.1859 106.18 67.4418C106.107 65.6984 105.892 63.9608 105.515 62.236C105.139 60.5091 104.608 58.805 104.002 57.056C103.995 57.0338 104.007 57.0102 104.029 57.0023C104.046 56.9966 104.064 57.0016 104.075 57.0145Z" fill="#1E7EB6"/>
<path fill-rule="evenodd" clip-rule="evenodd" d="M40.2924 65.9748C39.9196 64.046 39.9154 62.0311 40.2109 60.0614C40.4968 58.0867 41.1114 56.1615 41.9648 54.3633C42.839 52.5758 43.9563 50.9124 45.3055 49.4893C46.6451 48.0612 48.1988 46.8511 49.9126 46.0061C49.9437 45.9911 49.9796 46.0047 49.9941 46.0363C50.0058 46.0621 49.9996 46.0922 49.9796 46.1109C48.5855 47.4257 47.3018 48.7964 46.1673 50.2805C45.0411 51.7674 44.0447 53.3476 43.2395 55.0297C42.4123 56.7009 41.7812 58.4719 41.3013 60.2989C40.829 62.1301 40.5376 64.0202 40.3518 65.9719C40.3497 65.9884 40.3352 66.0013 40.3187 65.9999C40.3055 65.9985 40.2952 65.9877 40.2924 65.9748Z" fill="#1E7EB6"/>
<path fill-rule="evenodd" clip-rule="evenodd" d="M35.2873 62.9756C34.9274 61.1753 34.921 59.2993 35.1824 57.4626C35.4522 55.6258 35.991 53.8212 36.7863 52.1406C37.5731 50.4571 38.5888 48.8821 39.811 47.5024C41.0275 46.1205 42.4334 44.9127 44 44C42.7208 45.2891 41.5459 46.6339 40.521 48.0799C39.4996 49.5273 38.6114 51.0539 37.8915 52.6596C37.1786 54.2675 36.6067 55.9374 36.1988 57.6608C35.7797 59.3834 35.5282 61.151 35.3472 62.9728C35.3451 62.9892 35.331 63.0013 35.3134 62.9999C35.3007 62.9985 35.2894 62.9885 35.2873 62.9756Z" fill="#1E7EB6"/>
<path fill-rule="evenodd" clip-rule="evenodd" d="M91 93.8681C91 93.8681 87.803 92.6435 86.1223 90.8959C83.782 88.4628 83.9362 85.808 85.5183 80.6842C87.3796 74.5828 87.3289 68.1556 86.6121 65.2094C84.1154 54.9435 79 51 79 51C87.1597 55.4897 91.342 64.7442 89.2694 73.7263L86.2487 85.4927C85.7189 87.2311 88.8382 93.3283 91 93.8681L90.4524 96L91 93.8681Z" fill="#A6DEFF"/>
</svg>
