<svg width="137" height="136" viewBox="0 0 137 136" fill="none" xmlns="http://www.w3.org/2000/svg">
<path fill-rule="evenodd" clip-rule="evenodd" d="M136 68C136 105.003 105.779 135 68.4997 135C31.2207 135 1 105.003 1 68C1 30.9973 31.2207 1 68.4997 1C105.779 1 136 30.9973 136 68Z" stroke="white" stroke-opacity="0.301461" stroke-width="0.80465" stroke-dasharray="4.04 4.04"/>
<path fill-rule="evenodd" clip-rule="evenodd" d="M119 68C119 95.614 96.39 118 68.4997 118C40.6087 118 18 95.614 18 68C18 40.386 40.6087 18 68.4997 18C96.39 18 119 40.386 119 68Z" stroke="white" stroke-opacity="0.70788" stroke-width="0.80465" stroke-dasharray="4.06 4.06"/>
<path fill-rule="evenodd" clip-rule="evenodd" d="M46.2849 99H95.7298C96.9833 99 98 97.487 98 95.6214V46.3863C98 44.516 96.9809 43 95.7246 43H45.0851C44.4856 43 44 43.7227 44 44.6149V95.5995C44 97.4775 45.0226 99 46.2849 99Z" fill="#F5F5F5"/>
<path fill-rule="evenodd" clip-rule="evenodd" d="M46.4335 99H52.9097C52.9593 99 53 98.9455 53 98.8785V38.1215C53 38.0544 52.9593 38 52.9097 38H46.4335C45.0891 38 44 39.4581 44 41.2578V95.7422C44 97.5413 45.0891 99 46.4335 99Z" fill="#02446D"/>
<path fill-rule="evenodd" clip-rule="evenodd" d="M86.2754 76H101.916C101.962 76 102 75.9601 102 75.911V66.089C102 66.0399 101.962 66 101.916 66H86.2754C85.019 66 84 67.0743 84 68.3989V73.6011C84 74.9261 85.019 76 86.2754 76Z" fill="#1FA0F0"/>
<path fill-rule="evenodd" clip-rule="evenodd" d="M89.3177 38H46.3259V38.0059C45.037 38.0382 44 39.1396 44 40.5002C44 41.8608 45.037 42.9622 46.3259 42.9945V43H91.9151C91.962 43 92 42.9605 92 42.9113V40.8149C92 39.2602 90.7988 38 89.3177 38Z" fill="#E7E6E6"/>
<path fill-rule="evenodd" clip-rule="evenodd" d="M92 71C92 72.1047 91.1047 73 90 73C88.8953 73 88 72.1047 88 71C88 69.8953 88.8953 69 90 69C91.1047 69 92 69.8953 92 71Z" fill="#F5F5F5"/>
</svg>
