<svg width="511" height="102" viewBox="0 0 511 102" fill="none" xmlns="http://www.w3.org/2000/svg">
<path fill-rule="evenodd" clip-rule="evenodd" d="M4.00181 46.9238C4.00181 46.9238 40.4843 54.336 55.3475 49.5732C70.2107 44.8105 82.3715 32.707 105.342 35.7184C128.312 38.7297 139.122 43.4657 156.688 37.0632C174.253 30.6608 177.018 17.7084 206.038 17.7084C228.301 17.7084 239.111 40.776 256.676 40.776C274.242 40.776 285.781 27.569 305.684 27.569C325.588 27.569 335.046 20.6036 356.665 20.6036C390.445 20.6036 386.392 8.50014 408.011 7.15532C429.63 5.81049 443.142 19.2588 458.006 19.2588C472.869 19.2588 476.922 -2.25848 508 5.81049C508 49.5732 508 101 508 101H4L4.00181 46.9238Z" fill="#EFF4F8"/>
<path opacity="0.3" fill-rule="evenodd" clip-rule="evenodd" d="M506 4H507V101H506V4Z" fill="#A8C6DF"/>
<path opacity="0.3" fill-rule="evenodd" clip-rule="evenodd" d="M4 47H5V102H4V47Z" fill="#A8C6DF"/>
<path opacity="0.3" fill-rule="evenodd" clip-rule="evenodd" d="M54 50H55V102H54L54 50Z" fill="#A8C6DF"/>
<rect opacity="0.3" x="155" y="37" width="1" height="64" fill="#A8C6DF"/>
<path opacity="0.3" fill-rule="evenodd" clip-rule="evenodd" d="M255 42H256V102H255V42Z" fill="#A8C6DF"/>
<path opacity="0.3" fill-rule="evenodd" clip-rule="evenodd" d="M355 23H356V101H355V23Z" fill="#A8C6DF"/>
<path opacity="0.3" fill-rule="evenodd" clip-rule="evenodd" d="M456 21H457V102H456V21Z" fill="#A8C6DF"/>
<path opacity="0.3" fill-rule="evenodd" clip-rule="evenodd" d="M104 34H105V102H104V34Z" fill="#A8C6DF"/>
<path opacity="0.3" fill-rule="evenodd" clip-rule="evenodd" d="M205 21H206V102H205V21Z" fill="#A8C6DF"/>
<rect opacity="0.3" x="305" y="32" width="1" height="70" fill="#A8C6DF"/>
<path opacity="0.3" fill-rule="evenodd" clip-rule="evenodd" d="M406 11H407V101H406V11Z" fill="#A8C6DF"/>
<path d="M4 46.7695C4 46.7695 40.4572 54.155 55.3102 49.4094C70.1631 44.6638 82.3155 32.6038 105.27 35.6044C128.225 38.6049 139.027 43.3238 156.58 36.9443C174.134 30.5649 176.896 17.6591 205.896 17.6591C228.144 17.6591 238.947 40.6438 256.5 40.6438C274.053 40.6438 285.584 27.4843 305.474 27.4843C325.364 27.4843 334.816 20.5439 356.42 20.5439C390.176 20.5439 386.126 8.48396 407.73 7.14397C429.334 5.80398 442.837 19.2039 457.69 19.2039C472.543 19.2039 477.944 -2.23598 509 5.80398" stroke="#A8C6DF" stroke-width="4.05"/>
<path fill-rule="evenodd" clip-rule="evenodd" d="M506.5 9C508.985 9 511 6.98528 511 4.5C511 2.01472 508.985 0 506.5 0C504.015 0 502 2.01472 502 4.5C502 6.98528 504.015 9 506.5 9Z" fill="#A8C6DF"/>
<path fill-rule="evenodd" clip-rule="evenodd" d="M205 22C208.314 22 211 19.3137 211 16C211 12.6863 208.314 10 205 10C201.686 10 199 12.6863 199 16C199 19.3137 201.686 22 205 22Z" fill="#A8C6DF"/>
<path fill-rule="evenodd" clip-rule="evenodd" d="M4.5 51C6.98528 51 9 48.9853 9 46.5C9 44.0147 6.98528 42 4.5 42C2.01472 42 0 44.0147 0 46.5C0 48.9853 2.01472 51 4.5 51Z" fill="#A8C6DF"/>
</svg>
