<svg width="137" height="136" viewBox="0 0 137 136" fill="none" xmlns="http://www.w3.org/2000/svg">
<path fill-rule="evenodd" clip-rule="evenodd" d="M136 68C136 105.003 105.779 135 68.4997 135C31.2207 135 1 105.003 1 68C1 30.9973 31.2207 1 68.4997 1C105.779 1 136 30.9973 136 68Z" stroke="white" stroke-opacity="0.301461" stroke-width="0.80465" stroke-dasharray="4.04 4.04"/>
<path fill-rule="evenodd" clip-rule="evenodd" d="M119 68C119 95.614 96.39 118 68.4997 118C40.6087 118 18 95.614 18 68C18 40.386 40.6087 18 68.4997 18C96.39 18 119 40.386 119 68Z" stroke="white" stroke-opacity="0.70788" stroke-width="0.80465" stroke-dasharray="4.06 4.06"/>
<path fill-rule="evenodd" clip-rule="evenodd" d="M46 40C46 38.3431 47.3431 37 49 37H88C89.6569 37 91 38.3431 91 40V98.1955C91 100.631 88.2515 102.051 86.2649 100.643L70.2351 89.2778C69.1957 88.5409 67.8043 88.5409 66.7649 89.2778L50.7351 100.643C48.7485 102.051 46 100.631 46 98.1955V40Z" fill="#F1F2F7"/>
<path fill-rule="evenodd" clip-rule="evenodd" d="M75.6928 64.578C75.2155 65.0597 74.9986 65.7538 75.1104 66.4346L75.8315 70.7908C76.0562 72.1469 75.0165 73.2481 73.837 73.2481C73.5262 73.2481 73.2053 73.1714 72.8946 73.0023L69.1214 70.9455C68.8263 70.7853 68.5032 70.7052 68.179 70.7052C67.8559 70.7052 67.5328 70.7853 67.2376 70.9455L63.4645 73.0023C63.1537 73.1714 62.8328 73.2481 62.522 73.2481C61.3426 73.2481 60.3029 72.1469 60.5276 70.7908L61.2487 66.4346C61.3605 65.7538 61.1436 65.0597 60.6662 64.578L57.613 61.4933C56.4123 60.2797 57.0753 58.165 58.7344 57.9147L62.9536 57.2795C63.6132 57.1805 64.1833 56.7511 64.4774 56.1315L66.3645 52.1691C66.7357 51.3893 67.4579 51 68.179 51C68.9012 51 69.6234 51.3893 69.9945 52.1691L71.8817 56.1315C72.1757 56.7511 72.7459 57.1805 73.4055 57.2795L77.6247 57.9147C79.2837 58.165 79.9467 60.2797 78.746 61.4933L75.6928 64.578Z" fill="#5AC8FA"/>
</svg>
