<svg width="137" height="136" viewBox="0 0 137 136" fill="none" xmlns="http://www.w3.org/2000/svg">
<path fill-rule="evenodd" clip-rule="evenodd" d="M136 68C136 105.003 105.779 135 68.4997 135C31.2207 135 1 105.003 1 68C1 30.9973 31.2207 1 68.4997 1C105.779 1 136 30.9973 136 68Z" stroke="white" stroke-opacity="0.301461" stroke-width="0.80465" stroke-dasharray="4.04 4.04"/>
<path fill-rule="evenodd" clip-rule="evenodd" d="M119 68C119 95.614 96.39 118 68.4997 118C40.6087 118 18 95.614 18 68C18 40.386 40.6087 18 68.4997 18C96.39 18 119 40.386 119 68Z" stroke="white" stroke-opacity="0.70788" stroke-width="0.80465" stroke-dasharray="4.06 4.06"/>
<path fill-rule="evenodd" clip-rule="evenodd" d="M88.292 93.6776H51.1077C48.4905 93.6776 46.3482 91.5597 46.3482 88.9714V36.7051C46.3482 34.1168 48.4905 32 51.1077 32H88.292C90.9103 32 93.0526 34.1168 93.0526 36.7051V88.9714C93.0526 91.5597 90.9103 93.6776 88.292 93.6776Z" fill="#E7E6E6"/>
<path fill-rule="evenodd" clip-rule="evenodd" d="M85.1179 95.9122H47.9336C45.3164 95.9122 43.1741 93.7944 43.1741 91.206V38.9398C43.1741 36.3515 45.3164 34.2347 47.9336 34.2347H85.1179C87.7362 34.2347 89.8786 36.3515 89.8786 38.9398V91.206C89.8786 93.7944 87.7362 95.9122 85.1179 95.9122Z" fill="#EFEFEF"/>
<path fill-rule="evenodd" clip-rule="evenodd" d="M82.0303 97.6764H44.7692C42.1465 97.6764 39.9998 95.5673 39.9998 92.9897V40.9399C39.9998 38.3623 42.1465 36.2542 44.7692 36.2542H82.0303C84.654 36.2542 86.8008 38.3623 86.8008 40.9399V92.9897C86.8008 95.5673 84.654 97.6764 82.0303 97.6764Z" fill="#F5F5F5"/>
<path fill-rule="evenodd" clip-rule="evenodd" d="M76.6597 52.1122H49.1378C48.3519 52.1122 47.7085 51.509 47.7085 50.7719C47.7085 50.0339 48.3519 49.4306 49.1378 49.4306H76.6597C77.4457 49.4306 78.0891 50.0339 78.0891 50.7719C78.0891 51.509 77.4457 52.1122 76.6597 52.1122Z" fill="#005BBD"/>
<path fill-rule="evenodd" clip-rule="evenodd" d="M76.6597 60.1571H49.1378C48.3519 60.1571 47.7085 59.5539 47.7085 58.8168C47.7085 58.0788 48.3519 57.4755 49.1378 57.4755H76.6597C77.4457 57.4755 78.0891 58.0788 78.0891 58.8168C78.0891 59.5539 77.4457 60.1571 76.6597 60.1571Z" fill="#005BBD"/>
<path fill-rule="evenodd" clip-rule="evenodd" d="M76.6597 68.202H49.1378C48.3519 68.202 47.7085 67.5987 47.7085 66.8617C47.7085 66.1247 48.3519 65.5204 49.1378 65.5204H76.6597C77.4457 65.5204 78.0891 66.1247 78.0891 66.8617C78.0891 67.5987 77.4457 68.202 76.6597 68.202Z" fill="#005BBD"/>
<path fill-rule="evenodd" clip-rule="evenodd" d="M76.6597 76.2469H49.1378C48.3519 76.2469 47.7085 75.6436 47.7085 74.9066C47.7085 74.1686 48.3519 73.5653 49.1378 73.5653H76.6597C77.4457 73.5653 78.0891 74.1686 78.0891 74.9066C78.0891 75.6436 77.4457 76.2469 76.6597 76.2469Z" fill="#005BBD"/>
<path fill-rule="evenodd" clip-rule="evenodd" d="M63.5038 84.2918H49.1439C48.3546 84.2918 47.7085 83.6885 47.7085 82.9515C47.7085 82.2135 48.3546 81.6102 49.1439 81.6102H63.5038C64.2932 81.6102 64.9393 82.2135 64.9393 82.9515C64.9393 83.6885 64.2932 84.2918 63.5038 84.2918Z" fill="#005BBD"/>
<path fill-rule="evenodd" clip-rule="evenodd" d="M92.1191 74.1422C86.6109 79.5484 78.0834 80.1582 71.8925 75.9843C71.1013 75.4413 70.3483 74.8314 69.646 74.1422C69.2845 73.7885 68.9438 73.4235 68.6227 73.0392C67.9805 72.2718 67.418 71.4533 66.9571 70.6076C66.1452 69.1793 65.5931 67.6637 65.2916 66.097C64.3191 61.184 65.7733 55.8957 69.646 52.0959C73.528 48.2847 78.9162 46.8666 83.922 47.812C85.5171 48.1169 87.0625 48.6588 88.5178 49.4467C89.3806 49.9092 90.203 50.4612 90.9861 51.0915C91.3765 51.4055 91.7484 51.7411 92.1087 52.0959C92.8122 52.7851 93.4428 53.5231 93.9856 54.3008C98.2396 60.3757 97.617 68.7463 92.1191 74.1422Z" fill="white" fill-opacity="0.1"/>
<path fill-rule="evenodd" clip-rule="evenodd" d="M90.5778 73.0773C84.8472 78.7037 75.5603 78.7027 69.8286 73.0773C64.1044 67.4583 64.1044 58.3409 69.8361 52.7156C75.5603 47.0965 84.8472 47.0965 90.5714 52.7156C96.302 58.3409 96.302 67.4583 90.5778 73.0773ZM93.5188 49.8255C86.1631 42.6049 74.2433 42.6049 66.8876 49.8255C59.5329 57.045 59.5265 68.7531 66.8812 75.9737C73.5758 82.5433 84.0688 83.1357 91.449 77.7417C92.1699 77.2142 92.8641 76.6227 93.5263 75.9737C94.1874 75.3237 94.7899 74.6423 95.3263 73.9346C100.821 66.6889 100.212 56.396 93.5188 49.8255Z" fill="#B0D6FF"/>
<path fill-rule="evenodd" clip-rule="evenodd" d="M122.467 103.192L122.158 103.495C120.115 105.502 116.769 105.502 114.725 103.495L95.8611 84.9774L103.603 77.3781L122.467 95.8958C124.511 97.9024 124.511 101.185 122.467 103.192Z" fill="#005BBD"/>
<path fill-rule="evenodd" clip-rule="evenodd" d="M95.7329 73.3685L101.307 78.8405L97.3499 82.7243L91.7765 77.2522C92.5121 76.7139 93.2193 76.1104 93.8962 75.4481C94.5708 74.7859 95.1856 74.0905 95.7329 73.3685Z" fill="#B0D6FF"/>
<path fill-rule="evenodd" clip-rule="evenodd" d="M122.185 95.6681L114.492 103.218L113.108 101.858L120.799 94.3077L122.185 95.6681Z" fill="#B0D6FF"/>
<path fill-rule="evenodd" clip-rule="evenodd" d="M104.031 77.6395L96.1276 85.3974L94.9535 84.2449L102.856 76.4871L104.031 77.6395Z" fill="#B0D6FF"/>
<path fill-rule="evenodd" clip-rule="evenodd" d="M86.7841 50.7803L67.403 69.8043C66.6732 68.5202 66.1769 67.1577 65.9069 65.7492L82.6529 49.3107C84.0867 49.5858 85.4759 50.072 86.7841 50.7803Z" fill="white" fill-opacity="0.5"/>
<path fill-rule="evenodd" clip-rule="evenodd" d="M93.1381 55.3021L72.185 74.705C71.4346 74.2201 70.7204 73.6743 70.0544 73.0576C69.7116 72.7401 69.3873 72.4144 69.0839 72.0705L90.2922 52.4293C90.6635 52.7113 91.0162 53.0115 91.358 53.3291C92.024 53.9458 92.6232 54.6062 93.1381 55.3021Z" fill="white" fill-opacity="0.5"/>
</svg>
