<?xml version="1.0" encoding="UTF-8"?>
<svg width="61px" height="61px" viewBox="0 0 61 61" version="1.1" xmlns="http://www.w3.org/2000/svg" xmlns:xlink="http://www.w3.org/1999/xlink">
    <!-- Generator: Sketch 50.2 (55047) - http://www.bohemiancoding.com/sketch -->
    <title>Group 2</title>
    <desc>Created with Sketch.</desc>
    <defs>
        <path d="M27.4966742,12.7780876 C28.0539767,12.1996625 28.2507248,11.3507469 28.010275,10.5626372 C27.769765,9.77452752 27.1419506,9.21095198 26.3717898,9.09183624 L19.6373918,8.04987755 C19.5052045,8.02945953 19.3909308,7.94106682 19.3317801,7.81343824 L16.3200861,1.31583785 C15.9757019,0.572724607 15.2782772,0.111111111 14.5000013,0.111111111 C13.7217254,0.111111111 13.0243007,0.572724607 12.6799165,1.31583785 L9.66822251,7.81350225 C9.60901174,7.94106682 9.49479808,8.02945953 9.36255069,8.04994155 L2.62827289,9.09183624 C1.85811215,9.21095198 1.23035781,9.77452752 0.989787776,10.5626372 C0.749217742,11.3507469 0.946025911,12.1996625 1.50338857,12.7780876 L6.37640451,17.835802 C6.47204342,17.9351398 6.51574517,18.0781939 6.49314289,18.2184317 L5.34277089,25.3599996 C5.21124485,26.1767841 5.52058353,26.9866559 6.15020135,27.4737439 C6.77981918,27.96096 7.59903168,28.0238782 8.28780015,27.6383682 L14.311128,24.2665798 C14.4294293,24.2003333 14.5706334,24.2003333 14.6889949,24.2665798 L20.7123828,27.6383682 C21.0119833,27.8060647 21.3361697,27.8889529 21.6587932,27.8888889 C22.077777,27.8888889 22.4941159,27.7490991 22.8498013,27.4736799 C23.4794191,26.9865279 23.7888179,26.1765921 23.6572317,25.3599356 L22.5068597,18.2183677 C22.4843176,18.0781299 22.5279592,17.9350758 22.6235981,17.835738 L27.4966742,12.7780876 Z" id="path-1"></path>
    </defs>
    <g id="C+-Dashboard" stroke="none" stroke-width="1" fill="none" fill-rule="evenodd">
        <g id="1.4.1-Senior-Pastor---Profile" transform="translate(-721.000000, -227.000000)">
            <g id="Group-9" transform="translate(545.000000, 225.000000)">
                <g id="wat-copy-5" transform="translate(179.000000, 5.000000)">
                    <g id="Group-2">
                        <g id="Group-7" fill="#05203C" stroke="#05203C" stroke-width="5">
                            <g id="Group-6-Copy-4">
                                <circle id="Oval-2" cx="27.5" cy="27.5" r="27.5"></circle>
                            </g>
                        </g>
                        <g id="Icons/Favorites" transform="translate(13.000000, 12.000000)">
                            <mask id="mask-2" fill="white">
                                <use xlink:href="#path-1"></use>
                            </mask>
                            <use id="Favorites" fill="#000000" fill-rule="nonzero" xlink:href="#path-1"></use>
                            <g id="Tint/Dark" mask="url(#mask-2)" fill="#FFFFFF">
                                <g transform="translate(-408.805556, -162.388889)" id="Color">
                                    <rect x="0" y="0" width="816.666667" height="833.333333"></rect>
                                </g>
                            </g>
                        </g>
                    </g>
                </g>
            </g>
        </g>
    </g>
</svg>