<svg width="137" height="136" viewBox="0 0 137 136" fill="none" xmlns="http://www.w3.org/2000/svg">
<path fill-rule="evenodd" clip-rule="evenodd" d="M136 68C136 105.003 105.779 135 68.4997 135C31.2207 135 1 105.003 1 68C1 30.9973 31.2207 1 68.4997 1C105.779 1 136 30.9973 136 68Z" stroke="white" stroke-opacity="0.301461" stroke-width="0.80465" stroke-dasharray="4.04 4.04"/>
<path fill-rule="evenodd" clip-rule="evenodd" d="M119 68C119 95.614 96.39 118 68.4997 118C40.6087 118 18 95.614 18 68C18 40.386 40.6087 18 68.4997 18C96.39 18 119 40.386 119 68Z" stroke="white" stroke-opacity="0.70788" stroke-width="0.80465" stroke-dasharray="4.06 4.06"/>
<path d="M84.0833 46H78.8889C77.5846 46 77 47.0568 77 48.3611V88.5H86.4444V48.3611C86.4444 47.0568 85.3876 46 84.0833 46Z" fill="#F5F5F5"/>
<path d="M70.0833 59.2434H64.8889C63.5846 59.2434 63 60.3003 63 61.6045L63 88.5H72.4444V61.6045C72.4444 60.3003 71.3876 59.2434 70.0833 59.2434Z" fill="#6831C1"/>
<path d="M55.0833 71.2672H49.8889C48.5846 71.2672 48 72.324 48 73.6283L48 88.2566H57.4444V73.6283C57.4444 72.324 56.3876 71.2672 55.0833 71.2672Z" fill="#F5F5F5"/>
</svg>
