<?xml version="1.0" encoding="UTF-8"?>
<svg width="252px" height="72px" viewBox="0 0 252 72" version="1.1" xmlns="http://www.w3.org/2000/svg" xmlns:xlink="http://www.w3.org/1999/xlink">
    <!-- Generator: Sketch 52.2 (67145) - http://www.bohemiancoding.com/sketch -->
    <title>The Easy Way to Expa</title>
    <desc>Created with Sketch.</desc>
    <g id="Symbols" stroke="none" stroke-width="1" fill="none" fill-rule="evenodd">
        <g id="C+-/-Logo---The-Easy-Way-to-Expand" fill="#0079C4">
            <path d="M21.8017578,4.89746094 L13.1367188,4.89746094 L13.1367188,29 L9.57421875,29 L9.57421875,4.89746094 L0.927734375,4.89746094 L0.927734375,1.984375 L21.8017578,1.984375 L21.8017578,4.89746094 Z M36.2249348,8.55273438 C40.517274,8.55273438 42.6634114,10.9833741 42.6634114,15.8447266 L42.6634114,29 L39.1936848,29 L39.1936848,15.8076172 C39.1936848,14.2737554 38.8627962,13.1604852 38.201009,12.4677734 C37.5392219,11.7750616 36.5403712,11.4287109 35.204427,11.4287109 C34.1406196,11.4287109 33.1850628,11.7193981 32.3377278,12.3007812 C31.4903928,12.8821644 30.8193383,13.6614534 30.3245442,14.6386719 L30.3245442,29 L26.8548176,29 L26.8548176,0.5 L30.3245442,0.5 L30.3245442,11.2988281 C31.0543655,10.4205685 31.9202423,9.7433292 32.9222004,9.26708984 C33.9241586,8.79085048 35.025059,8.55273438 36.2249348,8.55273438 Z M65.5475259,19.9082031 L51.9654946,19.9082031 C52.0026042,21.1575583 52.2623672,22.2893829 52.7447915,23.3037109 C53.2272158,24.3180389 53.91064,25.1189749 54.7950845,25.706543 C55.679529,26.294111 56.7154887,26.5878906 57.9029946,26.5878906 C59.0657609,26.5878906 60.0707964,26.3528669 60.9181314,25.8828125 C61.7654663,25.4127581 62.5231085,24.7386112 63.1910806,23.8603516 L65.2877603,25.4931641 C64.545569,26.6311906 63.5559956,27.5620081 62.3190103,28.2856445 C61.0820249,29.009281 59.5481861,29.3710938 57.7174478,29.3710938 C55.8867094,29.3710938 54.2724678,28.9567099 52.8746743,28.1279297 C51.4768809,27.2991495 50.3976273,26.1487704 49.6368814,24.6767578 C48.8761354,23.2047452 48.4957681,21.5348401 48.4957681,19.6669922 L48.4957681,18.8691406 C48.4957681,16.7786354 48.9039671,14.9510169 49.7203774,13.3862305 C50.5367878,11.821444 51.6160413,10.6246786 52.9581704,9.79589844 C54.3002995,8.96711825 55.7382734,8.55273438 57.2721353,8.55273438 C59.1399831,8.55273438 60.6892841,8.97021067 61.9200845,9.80517578 C63.1508849,10.6401409 64.0631479,11.7936124 64.6569009,13.265625 C65.2506539,14.7376376 65.5475259,16.4384669 65.5475259,18.3681641 L65.5475259,19.9082031 Z M62.0777993,16.8652344 C61.9788405,15.294263 61.5551794,13.9799858 60.8068032,12.9223633 C60.0584271,11.8647408 58.8802162,11.3359375 57.2721353,11.3359375 C55.8867117,11.3359375 54.7332401,11.8400015 53.811686,12.8481445 C52.890132,13.8562876 52.31185,15.2818918 52.0768228,17.125 L62.0777993,17.125 L62.0777993,16.8652344 Z M99.8304033,26.1054688 L99.8304033,29 L82.6673174,29 L82.6673174,1.984375 L99.6448565,1.984375 L99.6448565,4.89746094 L86.2669268,4.89746094 L86.2669268,13.5996094 L97.9378252,13.5996094 L97.9378252,16.4941406 L86.2669268,16.4941406 L86.2669268,26.1054688 L99.8304033,26.1054688 Z M120.617838,24.6210938 C120.617838,25.3261754 120.679686,26.0528934 120.803385,26.8012695 C120.927084,27.5496457 121.100259,28.1835912 121.322916,28.703125 L121.322916,29 L117.704752,29 C117.494465,28.5175757 117.333659,27.8186895 117.22233,26.9033203 C116.529619,27.6455115 115.697758,28.242348 114.726725,28.6938477 C113.755691,29.1453473 112.688807,29.3710938 111.526041,29.3710938 C110.190097,29.3710938 109.005701,29.1082383 107.972819,28.5825195 C106.939936,28.0568008 106.142092,27.3424524 105.579264,26.4394531 C105.016436,25.5364538 104.735026,24.5345107 104.735026,23.4335938 C104.735026,22.0110606 105.103023,20.805018 105.83903,19.8154297 C106.575036,18.8258414 107.620273,18.0805689 108.974772,17.5795898 C110.329271,17.0786108 111.92805,16.828125 113.771158,16.828125 L117.148112,16.828125 L117.148112,15.2324219 C117.148112,14.0078064 116.786299,13.0460647 116.062662,12.347168 C115.339026,11.6482712 114.296881,11.2988281 112.936198,11.2988281 C112.107417,11.2988281 111.365237,11.4441717 110.709635,11.7348633 C110.054033,12.0255548 109.543784,12.4151994 109.178873,12.9038086 C108.813963,13.3924178 108.63151,13.9212211 108.63151,14.4902344 L105.161783,14.4902344 C105.161783,13.5130159 105.495764,12.5667363 106.163737,11.6513672 C106.831709,10.735998 107.771803,9.99072553 108.984049,9.41552734 C110.196295,8.84032916 111.581698,8.55273438 113.140299,8.55273438 C114.624682,8.55273438 115.926589,8.80322015 117.046061,9.30419922 C118.165533,9.80517829 119.040687,10.559728 119.671549,11.5678711 C120.302412,12.5760142 120.617838,13.8098885 120.617838,15.2695312 L120.617838,24.6210938 Z M112.027018,26.4023438 C112.818688,26.4023438 113.557776,26.263185 114.244303,25.9848633 C114.93083,25.7065416 115.521482,25.338544 116.016276,24.8808594 C116.51107,24.4231748 116.888345,23.9283881 117.148112,23.3964844 L117.148112,19.2402344 L114.327799,19.2402344 C112.348623,19.2402344 110.833338,19.5525685 109.781901,20.1772461 C108.730463,20.8019237 108.204752,21.7265564 108.204752,22.9511719 C108.204752,23.6067741 108.353188,24.1943333 108.650065,24.7138672 C108.946941,25.233401 109.37988,25.6446925 109.948893,25.9477539 C110.517906,26.2508153 111.210607,26.4023438 112.027018,26.4023438 Z M134.669921,20.1865234 C132.28254,19.6917293 130.479661,18.9990279 129.26123,18.1083984 C128.042799,17.217769 127.433593,15.986987 127.433593,14.4160156 C127.433593,13.3522082 127.742835,12.3750045 128.361328,11.484375 C128.97982,10.5937455 129.854974,9.88248964 130.986816,9.35058594 C132.118658,8.81868224 133.41438,8.55273438 134.874023,8.55273438 C136.432625,8.55273438 137.793288,8.8310519 138.956054,9.38769531 C140.11882,9.94433872 141.006344,10.695796 141.618652,11.6420898 C142.23096,12.5883836 142.537109,13.6428978 142.537109,14.8056641 L139.067382,14.8056641 C139.067382,14.2366508 138.900392,13.6862006 138.566406,13.1542969 C138.23242,12.6223932 137.74691,12.1863624 137.109863,11.8461914 C136.472815,11.5060204 135.727543,11.3359375 134.874023,11.3359375 C133.971024,11.3359375 133.222659,11.4750963 132.628906,11.753418 C132.035153,12.0317397 131.599122,12.3966449 131.3208,12.8481445 C131.042479,13.2996442 130.90332,13.7851537 130.90332,14.3046875 C130.90332,14.8365912 131.030109,15.2788068 131.283691,15.6313477 C131.537273,15.9838885 131.994951,16.3024074 132.656738,16.5869141 C133.318525,16.8714207 134.274082,17.1497382 135.523437,17.421875 C137.205737,17.8053405 138.572585,18.2568333 139.624023,18.7763672 C140.675461,19.295901 141.457842,19.9329389 141.971191,20.6875 C142.48454,21.4420611 142.74121,22.3574165 142.74121,23.4335938 C142.74121,24.59636 142.419599,25.6261348 141.776367,26.5229492 C141.133134,27.4197636 140.223964,28.1186498 139.048828,28.6196289 C137.873692,29.120608 136.513028,29.3710938 134.966796,29.3710938 C133.259757,29.3710938 131.784674,29.0649445 130.541503,28.4526367 C129.298333,27.840329 128.355146,27.0332081 127.711914,26.03125 C127.068681,25.0292919 126.74707,23.9593156 126.74707,22.8212891 L130.216796,22.8212891 C130.266276,23.7119185 130.526039,24.4386365 130.996093,25.0014648 C131.466148,25.5642932 132.050615,25.9693998 132.749511,26.2167969 C133.448408,26.4641939 134.187496,26.5878906 134.966796,26.5878906 C135.869796,26.5878906 136.645992,26.4611015 137.29541,26.2075195 C137.944827,25.9539375 138.436521,25.6075868 138.770507,25.168457 C139.104493,24.7293272 139.271484,24.2314481 139.271484,23.6748047 C139.271484,23.1181613 139.153972,22.6357442 138.918945,22.2275391 C138.683918,21.8193339 138.232425,21.442059 137.564453,21.0957031 C136.896481,20.7493472 135.931646,20.4462904 134.669921,20.1865234 Z M163.695637,8.92382812 L155.642903,32.0986328 C155.148109,33.4469468 154.433761,34.6189729 153.499837,35.6147461 C152.565913,36.6105193 151.294929,37.1083984 149.686848,37.1083984 C149.427081,37.1083984 149.090008,37.0743819 148.675618,37.0063477 C148.261228,36.9383135 147.948894,36.8733727 147.738606,36.8115234 L147.738606,34.046875 C147.874675,34.0716147 148.029295,34.0932616 148.202473,34.1118164 C148.375651,34.1303712 148.530272,34.1396484 148.666341,34.1396484 C149.841477,34.1396484 150.75374,33.8953475 151.403157,33.4067383 C152.052574,32.9181291 152.581378,32.0615296 152.989583,30.8369141 L153.750325,28.7773438 L146.588216,8.92382812 L150.373372,8.92382812 L155.346028,23.953125 L160.003255,8.92382812 L163.695637,8.92382812 Z M209.649413,1.984375 L203.118163,29 L199.833984,29 L194.286132,9.27636719 L193.877929,7.25390625 L193.451171,9.27636719 L187.699218,29 L184.415038,29 L177.883788,1.984375 L181.483398,1.984375 L185.732421,20.5019531 L186.251952,24.0273438 L186.99414,20.8544922 L192.33789,1.984375 L195.362304,1.984375 L200.557616,20.8544922 L201.299804,24.1015625 L201.874999,20.4833984 L206.031249,1.984375 L209.649413,1.984375 Z M229.342122,24.6210938 C229.342122,25.3261754 229.40397,26.0528934 229.527668,26.8012695 C229.651367,27.5496457 229.824542,28.1835912 230.0472,28.703125 L230.0472,29 L226.429036,29 C226.218748,28.5175757 226.057942,27.8186895 225.946614,26.9033203 C225.253902,27.6455115 224.422042,28.242348 223.451008,28.6938477 C222.479975,29.1453473 221.413091,29.3710938 220.250325,29.3710938 C218.914381,29.3710938 217.729985,29.1082383 216.697102,28.5825195 C215.664219,28.0568008 214.866376,27.3424524 214.303547,26.4394531 C213.740719,25.5364538 213.459309,24.5345107 213.459309,23.4335938 C213.459309,22.0110606 213.827307,20.805018 214.563313,19.8154297 C215.299319,18.8258414 216.344556,18.0805689 217.699055,17.5795898 C219.053554,17.0786108 220.652334,16.828125 222.495442,16.828125 L225.872395,16.828125 L225.872395,15.2324219 C225.872395,14.0078064 225.510582,13.0460647 224.786946,12.347168 C224.063309,11.6482712 223.021165,11.2988281 221.660481,11.2988281 C220.831701,11.2988281 220.089521,11.4441717 219.433918,11.7348633 C218.778316,12.0255548 218.268067,12.4151994 217.903157,12.9038086 C217.538246,13.3924178 217.355793,13.9212211 217.355793,14.4902344 L213.886067,14.4902344 C213.886067,13.5130159 214.220048,12.5667363 214.88802,11.6513672 C215.555992,10.735998 216.496087,9.99072553 217.708333,9.41552734 C218.920578,8.84032916 220.305981,8.55273438 221.864583,8.55273438 C223.348965,8.55273438 224.650873,8.80322015 225.770344,9.30419922 C226.889816,9.80517829 227.76497,10.559728 228.395833,11.5678711 C229.026695,12.5760142 229.342122,13.8098885 229.342122,15.2695312 L229.342122,24.6210938 Z M220.751301,26.4023438 C221.542972,26.4023438 222.28206,26.263185 222.968586,25.9848633 C223.655113,25.7065416 224.245765,25.338544 224.740559,24.8808594 C225.235353,24.4231748 225.612628,23.9283881 225.872395,23.3964844 L225.872395,19.2402344 L223.052083,19.2402344 C221.072906,19.2402344 219.557622,19.5525685 218.506184,20.1772461 C217.454747,20.8019237 216.929036,21.7265564 216.929036,22.9511719 C216.929036,23.6067741 217.077472,24.1943333 217.374348,24.7138672 C217.671225,25.233401 218.104163,25.6446925 218.673176,25.9477539 C219.24219,26.2508153 219.934891,26.4023438 220.751301,26.4023438 Z M251.224283,8.92382812 L243.171549,32.0986328 C242.676754,33.4469468 241.962406,34.6189729 241.028482,35.6147461 C240.094558,36.6105193 238.823575,37.1083984 237.215494,37.1083984 C236.955727,37.1083984 236.618654,37.0743819 236.204263,37.0063477 C235.789873,36.9383135 235.477539,36.8733727 235.267252,36.8115234 L235.267252,34.046875 C235.40332,34.0716147 235.557941,34.0932616 235.731119,34.1118164 C235.904297,34.1303712 236.058918,34.1396484 236.194986,34.1396484 C237.370122,34.1396484 238.282385,33.8953475 238.931803,33.4067383 C239.58122,32.9181291 240.110023,32.0615296 240.518228,30.8369141 L241.27897,28.7773438 L234.116861,8.92382812 L237.902017,8.92382812 L242.874674,23.953125 L247.5319,8.92382812 L251.224283,8.92382812 Z M11.1142578,64 C10.3225872,64.2473971 9.43815593,64.3710938 8.4609375,64.3710938 C7.06314405,64.3710938 5.94059668,63.950525 5.09326172,63.109375 C4.24592675,62.268225 3.82226562,60.9013767 3.82226562,59.0087891 L3.82226562,46.5400391 L0.166992188,46.5400391 L0.166992188,43.9238281 L3.82226562,43.9238281 L3.82226562,39.0439453 L7.29199219,39.0439453 L7.29199219,43.9238281 L11.0400391,43.9238281 L11.0400391,46.5400391 L7.29199219,46.5400391 L7.29199219,59.0273438 C7.29199219,59.9798225 7.48990687,60.6199528 7.88574219,60.9477539 C8.2815775,61.275555 8.81965806,61.4394531 9.5,61.4394531 C9.75976692,61.4394531 10.0442693,61.4178062 10.3535156,61.3745117 C10.662762,61.3312172 10.9101553,61.284831 11.0957031,61.2353516 L11.1142578,64 Z M15.1839192,53.7578125 C15.1839192,51.8157455 15.5550092,50.0716223 16.2972004,48.5253906 C17.0393917,46.9791589 18.1000907,45.7638391 19.4793293,44.8793945 C20.858568,43.99495 22.4635324,43.5527344 24.2942708,43.5527344 C26.1497488,43.5527344 27.7701753,43.99495 29.1555989,44.8793945 C30.5410225,45.7638391 31.6048139,46.9791589 32.3470051,48.5253906 C33.0891963,50.0716223 33.4602864,51.8157455 33.4602864,53.7578125 L33.4602864,54.1845703 C33.4602864,56.1266373 33.0891963,57.8676681 32.3470051,59.4077148 C31.6048139,60.9477616 30.5441149,62.1599891 29.1648762,63.0444336 C27.7856376,63.9288781 26.1744883,64.3710938 24.3313801,64.3710938 C22.488272,64.3710938 20.8771227,63.9288781 19.497884,63.0444336 C18.1186454,62.1599891 17.0548539,60.9477616 16.3064778,59.4077148 C15.5581016,57.8676681 15.1839192,56.1266373 15.1839192,54.1845703 L15.1839192,53.7578125 Z M18.6536458,54.1845703 C18.6536458,55.5452542 18.8670225,56.7884058 19.2937825,57.9140625 C19.7205424,59.0397192 20.3606727,59.9334277 21.2141926,60.5952148 C22.0677125,61.257002 23.1067646,61.5878906 24.3313801,61.5878906 C25.5436258,61.5878906 26.576493,61.257002 27.4300129,60.5952148 C28.2835328,59.9334277 28.9236632,59.0397192 29.3504231,57.9140625 C29.777183,56.7884058 29.9905598,55.5452542 29.9905598,54.1845703 L29.9905598,53.7578125 C29.9905598,52.3971286 29.7740906,51.153977 29.3411458,50.0283203 C28.9082009,48.9026636 28.2649781,48.0058627 27.4114583,47.3378906 C26.5579384,46.6699185 25.5188863,46.3359375 24.2942708,46.3359375 C23.0820251,46.3359375 22.0522503,46.6699185 21.2049153,47.3378906 C20.3575803,48.0058627 19.7205424,48.9026636 19.2937825,50.0283203 C18.8670225,51.153977 18.6536458,52.3971286 18.6536458,53.7578125 L18.6536458,54.1845703 Z M68.3183591,59.3056641 L68.3183591,64 L50.0791013,64 L50.0791013,36.984375 L68.2998044,36.984375 L68.2998044,41.6972656 L55.9052732,41.6972656 L55.9052732,47.8388672 L66.4628904,47.8388672 L66.4628904,52.3847656 L55.9052732,52.3847656 L55.9052732,59.3056641 L68.3183591,59.3056641 Z M83.7063799,43.9238281 L89.6438799,43.9238281 L84.0403643,53.7207031 L89.8850908,64 L83.9475908,64 L80.4778643,57.8212891 L77.0266924,64 L71.052083,64 L76.8968096,53.7207031 L71.3118486,43.9238281 L77.286458,43.9238281 L80.4593096,49.7314453 L83.7063799,43.9238281 Z M104.067057,43.5527344 C105.736987,43.5527344 107.159499,43.9733031 108.334635,44.8144531 C109.509771,45.6556032 110.397295,46.8399989 110.997233,48.3676758 C111.597171,49.8953527 111.897135,51.6858621 111.897135,53.7392578 L111.897135,54.1289062 C111.897135,56.095713 111.594078,57.8552982 110.987955,59.4077148 C110.381833,60.9601315 109.494309,62.1754513 108.325358,63.0537109 C107.156407,63.9319705 105.749357,64.3710938 104.104166,64.3710938 C102.149729,64.3710938 100.547857,63.6660227 99.2985022,62.2558594 L99.2985022,71.71875 L93.6949866,71.71875 L93.6949866,43.9238281 L98.8902991,43.9238281 L99.0944006,45.8535156 C100.356126,44.3196538 102.013661,43.5527344 104.067057,43.5527344 Z M106.312174,53.7392578 C106.312174,52.0074783 106.015302,50.6313528 105.421549,49.6108398 C104.827796,48.5903269 103.893886,48.0800781 102.619791,48.0800781 C100.99934,48.0800781 99.8922552,48.6985615 99.2985022,49.9355469 L99.2985022,57.9326172 C99.9169949,59.219082 101.03645,59.8623047 102.656901,59.8623047 C103.930996,59.8623047 104.858721,59.3365938 105.440104,58.2851562 C106.021487,57.2337187 106.312174,55.8483159 106.312174,54.1289062 L106.312174,53.7392578 Z M133.018554,59.0458984 C133.018554,60.183925 133.086587,61.1054652 133.222656,61.8105469 C133.358724,62.5156285 133.562824,63.1402968 133.83496,63.6845703 L133.83496,64 L128.21289,64 C127.965493,63.5175757 127.786133,62.9176468 127.674804,62.2001953 C126.400709,63.6474682 124.724619,64.3710938 122.646484,64.3710938 C121.384759,64.3710938 120.23438,64.1113307 119.195312,63.5917969 C118.156244,63.072263 117.336754,62.3548223 116.736816,61.4394531 C116.136878,60.524084 115.836914,59.4912167 115.836914,58.3408203 C115.836914,56.2255754 116.622388,54.5958716 118.193359,53.4516602 C119.76433,52.3074487 122.077458,51.7353516 125.132812,51.7353516 L127.415039,51.7353516 L127.415039,50.6035156 C127.415039,49.6757766 127.180015,48.9552435 126.70996,48.4418945 C126.239906,47.9285456 125.534835,47.671875 124.594726,47.671875 C123.741206,47.671875 123.076337,47.8728821 122.600097,48.2749023 C122.123858,48.6769226 121.885742,49.2490197 121.885742,49.9912109 L116.282226,49.9912109 C116.282226,48.7913351 116.637854,47.7028044 117.349121,46.7255859 C118.060387,45.7483675 119.068515,44.9752633 120.373535,44.40625 C121.678554,43.8372367 123.184561,43.5527344 124.891601,43.5527344 C126.474942,43.5527344 127.8789,43.8186822 129.103515,44.3505859 C130.328131,44.8824896 131.28678,45.6803332 131.979492,46.7441406 C132.672204,47.807948 133.018554,49.1067632 133.018554,50.640625 L133.018554,59.0458984 Z M123.908203,60.1220703 C124.724613,60.1220703 125.442054,59.9458025 126.060546,59.5932617 C126.679039,59.2407209 127.130532,58.8108749 127.415039,58.3037109 L127.415039,54.9453125 L125.28125,54.9453125 C123.982415,54.9453125 123.014488,55.2267224 122.377441,55.7895508 C121.740393,56.3523791 121.421875,57.0852819 121.421875,57.9882812 C121.421875,58.6191438 121.647621,59.132485 122.099121,59.5283203 C122.55062,59.9241556 123.153642,60.1220703 123.908203,60.1220703 Z M149.668294,43.5527344 C151.68458,43.5527344 153.243158,44.1557557 154.344075,45.3618164 C155.444992,46.5678771 155.995442,48.5377467 155.995442,51.2714844 L155.995442,64 L150.391927,64 L150.391927,51.2529297 C150.391927,50.0654238 150.138348,49.2397484 149.631184,48.7758789 C149.12402,48.3120094 148.338546,48.0800781 147.274739,48.0800781 C146.544918,48.0800781 145.910972,48.234699 145.372884,48.5439453 C144.834795,48.8531917 144.398764,49.2923149 144.064778,49.8613281 L144.064778,64 L138.461262,64 L138.461262,43.9238281 L143.712239,43.9238281 L143.897786,46.2431641 C144.602868,45.3649045 145.444005,44.6969424 146.421223,44.2392578 C147.398442,43.7815732 148.480788,43.5527344 149.668294,43.5527344 Z M178.898111,35.5 L178.898111,64 L173.851236,64 L173.572916,61.8476562 C172.261712,63.5299563 170.567067,64.3710938 168.488932,64.3710938 C166.868481,64.3710938 165.467616,63.935063 164.286295,63.0629883 C163.104974,62.1909136 162.208173,60.9879634 161.595865,59.4541016 C160.983558,57.9202397 160.677408,56.1699317 160.677408,54.203125 L160.677408,53.8134766 C160.677408,51.7724507 160.983558,49.9788489 161.595865,48.4326172 C162.208173,46.8863855 163.104974,45.6865277 164.286295,44.8330078 C165.467616,43.9794879 166.880851,43.5527344 168.526041,43.5527344 C170.430998,43.5527344 172.020501,44.27636 173.294596,45.7236328 L173.294596,35.5 L178.898111,35.5 Z M169.917643,59.84375 C171.488614,59.84375 172.614254,59.1757879 173.294596,57.8398438 L173.294596,50.0839844 C172.651363,48.7480402 171.538093,48.0800781 169.954752,48.0800781 C168.680657,48.0800781 167.74984,48.5996042 167.162271,49.6386719 C166.574703,50.6777396 166.280924,52.0693272 166.280924,53.8134766 L166.280924,54.203125 C166.280924,55.9225346 166.568519,57.2924754 167.143717,58.3129883 C167.718915,59.3335012 168.643548,59.84375 169.917643,59.84375 Z" id="The-Easy-Way-to-Expa"></path>
        </g>
    </g>
</svg>