<?xml version="1.0" encoding="UTF-8"?>
<svg width="135px" height="30px" viewBox="0 0 135 30" version="1.1" xmlns="http://www.w3.org/2000/svg" xmlns:xlink="http://www.w3.org/1999/xlink">
    <!-- Generator: Sketch 51.3 (57544) - http://www.bohemiancoding.com/sketch -->
    <title>C+/slogan azul</title>
    <desc>Created with Sketch.</desc>
    <defs>
        <linearGradient x1="50%" y1="0%" x2="50%" y2="100%" id="linearGradient-1">
            <stop stop-color="#3FA7F3" offset="0%"></stop>
            <stop stop-color="#5368BF" offset="100%"></stop>
        </linearGradient>
        <linearGradient x1="0%" y1="0%" x2="100%" y2="100%" id="linearGradient-2">
            <stop stop-color="#4AA3ED" offset="0%"></stop>
            <stop stop-color="#516FC5" offset="100%"></stop>
        </linearGradient>
    </defs>
    <g id="Symbols" stroke="none" stroke-width="1" fill="none" fill-rule="evenodd">
        <g id="Sidebar-reporte" transform="translate(-23.000000, -13.000000)">
            <g id="C+/slogan-azul" transform="translate(23.000000, 13.000000)">
                <g id="C+-azul">
                    <path d="M9.12505979,1.18737679 C7.30981303,1.97928449 5.72933639,3.05109395 4.3829544,4.40377468 C3.0367654,5.75655237 1.96944431,7.34502149 1.18176308,9.16830947 C0.393695873,10.9920822 0,12.936173 0,15 C0,17.0643118 0.393695873,19.0084025 1.18176308,20.8315936 C1.96944431,22.6554633 3.0367654,24.2435446 4.3829544,25.5962253 C5.72933639,26.9489061 7.30981303,28.0207155 9.12505979,28.8125263 C10.9397276,29.6039492 12.874434,30 14.9291791,30 C16.8036732,30 18.5987527,29.6641567 20.3144176,28.9929548 C22.029407,28.3213651 23.5754352,27.3545551 24.9516339,26.0921372 C25.2705468,25.7914876 25.5149664,25.4557412 25.684603,25.0850919 C25.8538536,24.7141518 25.9488038,24.3233365 25.9688745,23.9127428 C25.9884628,23.5022461 25.9338472,23.1011537 25.8042556,22.7105323 C25.6743746,22.3196199 25.4602542,21.9640953 25.1611225,21.6433765 C24.8618944,21.3229486 24.5276389,21.0771742 24.1588385,20.9068287 C23.7895556,20.7367741 23.4004914,20.6413728 22.992032,20.6211098 C22.5829935,20.6015254 22.18428,20.6564974 21.7953123,20.7865107 C21.4063447,20.9171056 21.0520184,21.1322432 20.7331054,21.4327958 C19.9352923,22.154316 19.0377043,22.7105323 18.0406309,23.1011537 C17.043075,23.4919691 16.0061496,23.6872314 14.9291791,23.6872314 C13.7323629,23.6872314 12.6105227,23.4572601 11.5632724,22.9959603 C10.516215,22.5351453 9.60376695,21.9138739 8.82592812,21.1322432 C8.04799279,20.3505155 7.4294657,19.4339269 6.9709258,18.3817988 C6.51180694,17.3295737 6.28282647,16.2024044 6.28282647,15 C6.28282647,13.7974017 6.51180694,12.6702324 6.9709258,11.6182012 C7.4294657,10.5660731 8.04799279,9.64919368 8.82592812,8.86765989 C9.60376695,8.08622306 10.516215,7.46524254 11.5632724,7.00394273 C12.6105227,6.54322464 13.7323629,6.31257473 14.9291791,6.31257473 C16.0061496,6.31257473 17.043075,6.50793394 18.0406309,6.89884627 C19.0377043,7.28966164 19.9352923,7.845684 20.7331054,8.56720421 C21.0520184,8.86765989 21.4063447,9.08318521 21.7953123,9.21348932 C22.18428,9.34398733 22.5829935,9.39886242 22.992032,9.37859936 C23.4004914,9.35901496 23.7895556,9.26361374 24.1588385,9.09326827 C24.5276389,8.92321365 24.8618944,8.67753611 25.1611225,8.35662347 C25.4602542,8.03638949 25.6743746,7.68038005 25.8042556,7.28966164 C25.9338472,6.89884627 25.9884628,6.49814174 25.9688745,6.08725721 C25.9488038,5.67666354 25.8538536,5.28584817 25.684603,4.9148111 C25.5149664,4.5442588 25.2705468,4.20841547 24.9516339,3.90776589 C23.5754352,2.64525095 22.029407,1.67863491 20.3144176,1.00704521 C18.5987527,0.335843325 16.8036732,0 14.9291791,0 C12.874434,0 10.9397276,0.395953851 9.12505979,1.18737679" id="Fill-1" fill="url(#linearGradient-1)"></path>
                    <path d="M23.2071509,10.9883721 C23.0222817,10.9883721 22.8726256,11.1374536 22.8726256,11.3213956 L22.8726256,13.5079575 C22.8726256,13.691802 22.7230674,13.8407862 22.538296,13.8407862 L20.3805104,13.8407862 C20.195739,13.8407862 20.0460829,13.9898678 20.0460829,14.1736149 L20.0460829,15.6327835 C20.0460829,15.8165307 20.195739,15.9656122 20.3805104,15.9656122 L22.538296,15.9656122 C22.7230674,15.9656122 22.8726256,16.1147912 22.8726256,16.298441 L22.8726256,18.5042832 C22.8726256,18.687933 23.0222817,18.8372093 23.2071509,18.8372093 L24.8650071,18.8372093 C25.0497785,18.8372093 25.1994346,18.687933 25.1994346,18.5042832 L25.1994346,16.298441 C25.1994346,16.1147912 25.3490906,15.9656122 25.5337642,15.9656122 L27.7300887,15.9656122 C27.9148601,15.9656122 28.0645161,15.8165307 28.0645161,15.6327835 L28.0645161,14.1736149 C28.0645161,13.9898678 27.9148601,13.8407862 27.7300887,13.8407862 L25.5337642,13.8407862 C25.3490906,13.8407862 25.1994346,13.691802 25.1994346,13.5079575 L25.1994346,11.3213956 C25.1994346,11.1374536 25.0497785,10.9883721 24.8650071,10.9883721 L23.2071509,10.9883721 Z" id="Fill-4" fill="#3FA7F3"></path>
                </g>
                <g id="The-Easy-Way-to-Expand" transform="translate(47.000000, 4.000000)" fill="url(#linearGradient-2)">
                    <path d="M7.5700548,1.70050727 L4.56136068,1.70050727 L4.56136068,10.0694444 L3.32438151,10.0694444 L3.32438151,1.70050727 L0.322129991,1.70050727 L0.322129991,0.689019097 L7.5700548,0.689019097 L7.5700548,1.70050727 Z M12.5781024,2.96969944 C14.0684979,2.96969944 14.8136845,3.81367157 14.8136845,5.50164117 L14.8136845,10.0694444 L13.6089183,10.0694444 L13.6089183,5.48875597 C13.6089183,4.95616505 13.4940265,4.56961293 13.2642392,4.329088 C13.034452,4.08856307 12.6876289,3.96830241 12.2237594,3.96830241 C11.8543818,3.96830241 11.5225912,4.06923546 11.2283777,4.2711046 C10.9341642,4.47297374 10.7011591,4.74356022 10.5293556,5.08287218 L10.5293556,10.0694444 L9.32458945,10.0694444 L9.32458945,0.173611111 L10.5293556,0.173611111 L10.5293556,3.92320421 C10.7827658,3.61825296 11.0834175,3.38310042 11.4313196,3.21773953 C11.7792217,3.05237864 12.1614788,2.96969944 12.5781024,2.96969944 Z M22.7595576,6.91257053 L18.0435745,6.91257053 C18.0564598,7.34637442 18.1466553,7.73936908 18.3141637,8.0915663 C18.4816722,8.44376352 18.7189722,8.72186629 19.026071,8.92588298 C19.3331698,9.12989966 19.692878,9.23190647 20.1052065,9.23190647 C20.5089447,9.23190647 20.8579154,9.15030102 21.1521289,8.98708767 C21.4463425,8.82387433 21.7094127,8.58979554 21.9413474,8.28484429 L22.6693612,8.85179308 C22.4116559,9.24694118 22.068054,9.5701417 21.6385452,9.82140435 C21.2090364,10.072667 20.6764535,10.1982964 20.0407805,10.1982964 C19.4051074,10.1982964 18.8446069,10.0544132 18.3592619,9.76664225 C17.873917,9.47887135 17.4991762,9.07943416 17.2350282,8.56831868 C16.9708803,8.05720321 16.8388084,7.47737502 16.8388084,6.82881673 L16.8388084,6.55178494 C16.8388084,5.82591506 16.9805441,5.19132533 17.2640199,4.64799669 C17.5474958,4.10466806 17.9222366,3.68912452 18.3882536,3.40135362 C18.8542707,3.11358273 19.3535672,2.96969944 19.8861581,2.96969944 C20.5347164,2.96969944 21.0726681,3.11465648 21.5000293,3.40457492 C21.9273906,3.69449337 22.2441486,4.09500432 22.4503128,4.60611979 C22.656477,5.11723527 22.7595576,5.70780101 22.7595576,6.37783474 L22.7595576,6.91257053 Z M21.5547914,5.85598416 C21.5204307,5.31050798 21.3733262,4.85416172 21.1134733,4.48693169 C20.8536205,4.11970167 20.4445195,3.93608941 19.8861581,3.93608941 C19.4051082,3.93608941 19.0045973,4.11111162 18.6846132,4.4611613 C18.3646292,4.81121097 18.1638368,5.30621244 18.0822301,5.94618056 L21.5547914,5.94618056 L21.5547914,5.85598416 Z M34.6633345,9.06439887 L34.6633345,10.0694444 L28.7039296,10.0694444 L28.7039296,0.689019097 L34.5989085,0.689019097 L34.5989085,1.70050727 L29.953794,1.70050727 L29.953794,4.72208659 L34.0061893,4.72208659 L34.0061893,5.72713216 L29.953794,5.72713216 L29.953794,9.06439887 L34.6633345,9.06439887 Z M41.8811938,8.54899089 C41.8811938,8.7938109 41.9026689,9.04614354 41.9456198,9.30599637 C41.9885707,9.56584919 42.048701,9.78596915 42.1260126,9.96636285 L42.1260126,10.0694444 L40.8697056,10.0694444 C40.7966891,9.90193601 40.7408538,9.65926718 40.702198,9.34143066 C40.4616731,9.59913595 40.1728328,9.80637083 39.8356684,9.96314155 C39.4985039,10.1199123 39.1280582,10.1982964 38.7243199,10.1982964 C38.2604504,10.1982964 37.8492019,10.1070272 37.490562,9.92448595 C37.1319222,9.74194471 36.8548931,9.49390709 36.6594666,9.18036567 C36.4640401,8.86682424 36.3663283,8.51892733 36.3663283,8.1366645 C36.3663283,7.64272937 36.4941053,7.22396457 36.749663,6.88035753 C37.0052208,6.53675049 37.3681503,6.27797532 37.8384624,6.10402425 C38.3087745,5.93007319 38.8639063,5.84309896 39.5038745,5.84309896 L40.6764276,5.84309896 L40.6764276,5.28903537 C40.6764276,4.86382166 40.5507982,4.52988357 40.2995355,4.2872111 C40.0482729,4.04453863 39.6864172,3.92320421 39.2139575,3.92320421 C38.9261866,3.92320421 38.6684852,3.97367074 38.4408455,4.07460531 C38.2132058,4.17553987 38.0360361,4.31083312 37.909331,4.4804891 C37.7826259,4.65014507 37.7192743,4.83375733 37.7192743,5.03133138 L36.5145081,5.03133138 C36.5145081,4.69201943 36.6304738,4.36345012 36.8624085,4.04561361 C37.0943433,3.72777709 37.4207651,3.46900192 37.8416837,3.26928033 C38.2626023,3.06955873 38.743645,2.96969944 39.2848261,2.96969944 C39.8002366,2.96969944 40.2522879,3.05667366 40.6409933,3.23062473 C41.0296988,3.40457579 41.3335717,3.66657223 41.5526212,4.01662191 C41.7716707,4.36667158 41.8811938,4.79510019 41.8811938,5.30192057 L41.8811938,8.54899089 Z M38.8982701,9.16748047 C39.1731557,9.16748047 39.4297834,9.11916145 39.6681608,9.02252197 C39.9065381,8.92588249 40.1116255,8.79810554 40.283429,8.63918728 C40.4552326,8.48026903 40.5862308,8.30846808 40.6764276,8.1237793 L40.6764276,6.68063694 L39.6971525,6.68063694 C39.0099384,6.68063694 38.483798,6.78908628 38.1187155,7.00598823 C37.753633,7.22289017 37.5710945,7.54394319 37.5710945,7.9691569 C37.5710945,8.19679657 37.6226348,8.40081019 37.7257169,8.58120388 C37.828799,8.76159758 37.9791249,8.90440712 38.1766989,9.00963677 C38.3742729,9.11486643 38.6147943,9.16748047 38.8982701,9.16748047 Z M46.7603894,7.00920953 C45.9314374,6.83740601 45.3054377,6.59688468 44.8823715,6.28763835 C44.4593054,5.97839201 44.2477754,5.55103716 44.2477754,5.00556098 C44.2477754,4.63618341 44.355151,4.29687655 44.5699054,3.98763021 C44.7846598,3.67838387 45.0885328,3.43142001 45.4815333,3.24673123 C45.8745339,3.06204244 46.3244376,2.96969944 46.831258,2.96969944 C47.3724391,2.96969944 47.8448917,3.06633747 48.2486299,3.25961643 C48.6523682,3.45289539 48.9605362,3.71381807 49.173143,4.04239231 C49.3857499,4.37096654 49.4920517,4.7371173 49.4920517,5.14085558 L48.2872855,5.14085558 C48.2872855,4.94328153 48.2293027,4.75215298 48.1133353,4.56746419 C47.997368,4.38277541 47.8287883,4.23137583 47.6075913,4.1132609 C47.3863942,3.99514598 47.127619,3.93608941 46.831258,3.93608941 C46.5177165,3.93608941 46.2578676,3.98440843 46.0517034,4.08104791 C45.8455392,4.17768739 45.6941396,4.30439058 45.5975001,4.4611613 C45.5008606,4.61793201 45.4525416,4.78651168 45.4525416,4.96690538 C45.4525416,5.15159417 45.4965656,5.30514126 45.5846149,5.42755127 C45.6726642,5.54996128 45.8315801,5.66055814 46.0613673,5.75934516 C46.2911545,5.85813219 46.6229451,5.95477022 47.056749,6.04926215 C47.6408809,6.18240988 48.115481,6.33917824 48.4805635,6.51957194 C48.845646,6.69996564 49.1173063,6.92115935 49.2955524,7.18315972 C49.4737986,7.44516009 49.5629203,7.76299184 49.5629203,8.1366645 C49.5629203,8.54040277 49.4512497,8.89796349 49.2279051,9.20935737 C49.0045605,9.52075125 48.6888763,9.76342008 48.2808429,9.93737115 C47.8728096,10.1113222 47.400357,10.1982964 46.863471,10.1982964 C46.2707488,10.1982964 45.7585673,10.0919946 45.3269109,9.87938775 C44.8952546,9.66678089 44.567759,9.3865306 44.3444144,9.03862847 C44.1210699,8.69072634 44.0093992,8.3192068 44.0093992,7.9240587 L45.2141654,7.9240587 C45.2313458,8.23330504 45.3215413,8.48563768 45.4847546,8.68106418 C45.647968,8.87649069 45.8509078,9.01715271 46.0935803,9.10305447 C46.3362528,9.18895623 46.5928804,9.23190647 46.863471,9.23190647 C47.1770124,9.23190647 47.4465251,9.18788248 47.6720172,9.09983317 C47.8975094,9.01178387 48.0682366,8.89152321 48.1842039,8.73904758 C48.3001713,8.58657196 48.3581541,8.41369726 48.3581541,8.22041829 C48.3581541,8.02713933 48.3173514,7.85963341 48.2357447,7.71789551 C48.1541381,7.5761576 47.9973697,7.44515938 47.7654349,7.32489692 C47.5335002,7.20463445 47.1984884,7.09940638 46.7603894,7.00920953 Z M56.838763,3.09855143 L54.0426747,11.1453586 C53.8708712,11.6135232 53.6228335,12.0204767 53.2985544,12.3662313 C52.9742753,12.7119859 52.5329616,12.8848606 51.9746001,12.8848606 C51.8844033,12.8848606 51.7673639,12.8730493 51.6234784,12.8494263 C51.479593,12.8258033 51.3711437,12.8032544 51.2981272,12.781779 L51.2981272,11.8218316 C51.3453731,11.8304218 51.3990609,11.8379381 51.4591922,11.8443807 C51.5193234,11.8508233 51.5730112,11.8540446 51.6202571,11.8540446 C52.0282905,11.8540446 52.3450485,11.7692179 52.5705406,11.5995619 C52.7960327,11.4299059 52.979645,11.1324755 53.1213829,10.7072618 L53.3855295,9.99213325 L50.898686,3.09855143 L52.2129763,3.09855143 L53.9395931,8.31705729 L55.5566856,3.09855143 L56.838763,3.09855143 Z M72.7949352,0.689019097 L70.5271401,10.0694444 L69.3867999,10.0694444 L67.4604625,3.22096083 L67.3187253,2.51871745 L67.1705455,3.22096083 L65.1733396,10.0694444 L64.0329994,10.0694444 L61.7652043,0.689019097 L63.0150687,0.689019097 L64.490424,7.11873372 L64.6708168,8.34282769 L64.9285208,7.24114312 L66.7839896,0.689019097 L67.8341333,0.689019097 L69.6380613,7.24114312 L69.8957653,8.36859809 L70.0954859,7.11229112 L71.5386282,0.689019097 L72.7949352,0.689019097 Z M79.6326811,8.54899089 C79.6326811,8.7938109 79.6541562,9.04614354 79.6971071,9.30599637 C79.740058,9.56584919 79.8001883,9.78596915 79.8774999,9.96636285 L79.8774999,10.0694444 L78.6211929,10.0694444 C78.5481764,9.90193601 78.4923411,9.65926718 78.4536853,9.34143066 C78.2131604,9.59913595 77.9243201,9.80637083 77.5871557,9.96314155 C77.2499913,10.1199123 76.8795455,10.1982964 76.4758072,10.1982964 C76.0119377,10.1982964 75.6006892,10.1070272 75.2420493,9.92448595 C74.8834095,9.74194471 74.6063805,9.49390709 74.410954,9.18036567 C74.2155274,8.86682424 74.1178157,8.51892733 74.1178157,8.1366645 C74.1178157,7.64272937 74.2455926,7.22396457 74.5011503,6.88035753 C74.7567081,6.53675049 75.1196376,6.27797532 75.5899497,6.10402425 C76.0602619,5.93007319 76.6153937,5.84309896 77.2553618,5.84309896 L78.4279149,5.84309896 L78.4279149,5.28903537 C78.4279149,4.86382166 78.3022855,4.52988357 78.0510229,4.2872111 C77.7997602,4.04453863 77.4379045,3.92320421 76.9654448,3.92320421 C76.6776739,3.92320421 76.4199725,3.97367074 76.1923328,4.07460531 C75.9646931,4.17553987 75.7875234,4.31083312 75.6608183,4.4804891 C75.5341132,4.65014507 75.4707616,4.83375733 75.4707616,5.03133138 L74.2659955,5.03133138 C74.2659955,4.69201943 74.3819611,4.36345012 74.6138958,4.04561361 C74.8458306,3.72777709 75.1722524,3.46900192 75.593171,3.26928033 C76.0140896,3.06955873 76.4951323,2.96969944 77.0363134,2.96969944 C77.5517239,2.96969944 78.0037752,3.05667366 78.3924806,3.23062473 C78.7811861,3.40457579 79.085059,3.66657223 79.3041085,4.01662191 C79.523158,4.36667158 79.6326811,4.79510019 79.6326811,5.30192057 L79.6326811,8.54899089 Z M76.6497574,9.16748047 C76.924643,9.16748047 77.1812707,9.11916145 77.4196481,9.02252197 C77.6580255,8.92588249 77.8631128,8.79810554 78.0349164,8.63918728 C78.2067199,8.48026903 78.3377181,8.30846808 78.4279149,8.1237793 L78.4279149,6.68063694 L77.4486398,6.68063694 C76.7614257,6.68063694 76.2352853,6.78908628 75.8702028,7.00598823 C75.5051203,7.22289017 75.3225818,7.54394319 75.3225818,7.9691569 C75.3225818,8.19679657 75.3741221,8.40081019 75.4772042,8.58120388 C75.5802863,8.76159758 75.7306122,8.90440712 75.9281862,9.00963677 C76.1257603,9.11486643 76.3662816,9.16748047 76.6497574,9.16748047 Z M87.2306538,3.09855143 L84.4345655,11.1453586 C84.262762,11.6135232 84.0147244,12.0204767 83.6904452,12.3662313 C83.3661661,12.7119859 82.9248524,12.8848606 82.3664909,12.8848606 C82.2762941,12.8848606 82.1592547,12.8730493 82.0153693,12.8494263 C81.8714838,12.8258033 81.7630345,12.8032544 81.690018,12.781779 L81.690018,11.8218316 C81.7372639,11.8304218 81.7909517,11.8379381 81.851083,11.8443807 C81.9112142,11.8508233 81.964902,11.8540446 82.012148,11.8540446 C82.4201813,11.8540446 82.7369393,11.7692179 82.9624314,11.5995619 C83.1879235,11.4299059 83.3715358,11.1324755 83.5132737,10.7072618 L83.7774203,9.99213325 L81.2905768,3.09855143 L82.6048671,3.09855143 L84.3314839,8.31705729 L85.9485764,3.09855143 L87.2306538,3.09855143 Z M3.8591173,22.2222222 C3.58423166,22.308124 3.27713747,22.3510742 2.93782552,22.3510742 C2.45248057,22.3510742 2.06270718,22.2050434 1.76849365,21.9129774 C1.47428012,21.6209114 1.32717556,21.1463113 1.32717556,20.4891629 L1.32717556,16.1597358 L0.0579833984,16.1597358 L0.0579833984,15.2513292 L1.32717556,15.2513292 L1.32717556,13.5569255 L2.53194173,13.5569255 L2.53194173,15.2513292 L3.8333469,15.2513292 L3.8333469,16.1597358 L2.53194173,16.1597358 L2.53194173,20.4956055 C2.53194173,20.8263272 2.60066211,21.0485947 2.73810493,21.1624146 C2.87554774,21.2762344 3.06238127,21.3331434 3.29861111,21.3331434 C3.38880796,21.3331434 3.4875935,21.3256272 3.5949707,21.3105943 C3.7023479,21.2955615 3.78824838,21.2794552 3.8526747,21.2622748 L3.8591173,22.2222222 Z M5.27219416,18.6659071 C5.27219416,17.9915783 5.40104487,17.38598 5.65875015,16.849094 C5.91645543,16.312208 6.28475371,15.8902219 6.76365602,15.5831231 C7.24255834,15.2760243 7.79983765,15.1224772 8.43551068,15.1224772 C9.07977388,15.1224772 9.64242197,15.2760243 10.1234718,15.5831231 C10.6045217,15.8902219 10.9738937,16.312208 11.231599,16.849094 C11.4893043,17.38598 11.618155,17.9915783 11.618155,18.6659071 L11.618155,18.8140869 C11.618155,19.4884157 11.4893043,20.0929403 11.231599,20.6276788 C10.9738937,21.1624172 10.6055954,21.5833295 10.1266931,21.8904283 C9.64779082,22.1975271 9.08836399,22.3510742 8.44839588,22.3510742 C7.80842776,22.3510742 7.24900094,22.1975271 6.77009862,21.8904283 C6.29119631,21.5833295 5.92182428,21.1624172 5.66197145,20.6276788 C5.40211863,20.0929403 5.27219416,19.4884157 5.27219416,18.8140869 L5.27219416,18.6659071 Z M6.47696033,18.8140869 C6.47696033,19.2865466 6.55104949,19.7181965 6.69923003,20.1090495 C6.84741056,20.4999025 7.06967803,20.8102179 7.36603911,21.0400052 C7.66240018,21.2697924 8.02318216,21.3846842 8.44839588,21.3846842 C8.8693145,21.3846842 9.22794898,21.2697924 9.52431005,21.0400052 C9.82067112,20.8102179 10.0429386,20.4999025 10.1911191,20.1090495 C10.3392997,19.7181965 10.4133888,19.2865466 10.4133888,18.8140869 L10.4133888,18.6659071 C10.4133888,18.1934474 10.3382259,17.7617976 10.1878978,17.3709446 C10.0375698,16.9800915 9.81422852,16.6687023 9.51786745,16.4367676 C9.22150638,16.2048328 8.86072439,16.0888672 8.43551068,16.0888672 C8.01459205,16.0888672 7.65703134,16.2048328 7.36281781,16.4367676 C7.06860428,16.6687023 6.84741056,16.9800915 6.69923003,17.3709446 C6.55104949,17.7617976 6.47696033,18.1934474 6.47696033,18.6659071 L6.47696033,18.8140869 Z M23.7216525,20.5922445 L23.7216525,22.2222222 L17.3885768,22.2222222 L17.3885768,12.8417969 L23.7152099,12.8417969 L23.7152099,14.4782172 L19.4115532,14.4782172 L19.4115532,16.6107178 L23.0773925,16.6107178 L23.0773925,18.1891547 L19.4115532,18.1891547 L19.4115532,20.5922445 L23.7216525,20.5922445 Z M29.0647152,15.2513292 L31.1263472,15.2513292 L29.180682,18.6530219 L31.210101,22.2222222 L29.148469,22.2222222 L27.9437029,20.0768365 L26.7453793,22.2222222 L24.6708622,22.2222222 L26.7002811,18.6530219 L24.7610586,15.2513292 L26.8355757,15.2513292 L27.9372603,17.267863 L29.0647152,15.2513292 Z M36.1343948,15.1224772 C36.7142316,15.1224772 37.2081594,15.268508 37.6161927,15.560574 C38.0242261,15.85264 38.332394,16.2638885 38.5407058,16.7943319 C38.7490176,17.3247752 38.8531719,17.9464799 38.8531719,18.6594645 L38.8531719,18.7947591 C38.8531719,19.4776781 38.7479438,20.0886452 38.5374845,20.6276788 C38.3270252,21.1667123 38.0188572,21.5886984 37.6129714,21.8936496 C37.2070856,22.1986009 36.7185267,22.3510742 36.14728,22.3510742 C35.468656,22.3510742 34.9124505,22.1062579 34.4786466,21.6166178 L34.4786466,24.9023437 L32.5329815,24.9023437 L32.5329815,15.2513292 L34.3369094,15.2513292 L34.407778,15.9213596 C34.845877,15.3887687 35.4214101,15.1224772 36.1343948,15.1224772 Z M36.9139493,18.6594645 C36.9139493,18.0581522 36.8108688,17.5803308 36.6047045,17.2259861 C36.3985403,16.8716413 36.074266,16.6944716 35.631872,16.6944716 C35.0692154,16.6944716 34.6848108,16.9092228 34.4786466,17.3387316 L34.4786466,20.1154921 C34.693401,20.5621812 35.0821006,20.7855225 35.6447572,20.7855225 C36.0871512,20.7855225 36.409278,20.602984 36.6111471,20.2379015 C36.8130163,19.872819 36.9139493,19.3917764 36.9139493,18.7947591 L36.9139493,18.6594645 Z M46.186998,20.5020481 C46.186998,20.8971962 46.2106206,21.2171754 46.2578666,21.4619954 C46.3051126,21.7068155 46.3759804,21.9237142 46.4704724,22.112698 L46.4704724,22.2222222 L44.5183646,22.2222222 C44.4324629,22.0547138 44.370185,21.8464051 44.3315292,21.59729 C43.8891352,22.0998153 43.3071595,22.3510742 42.5855847,22.3510742 C42.1474857,22.3510742 41.7480485,22.2608787 41.3872611,22.080485 C41.0264737,21.9000913 40.7419284,21.65098 40.5336166,21.3331434 C40.3253049,21.0153069 40.2211506,20.6566725 40.2211506,20.2572293 C40.2211506,19.5227692 40.4938845,18.9568999 41.0393607,18.5596042 C41.5848369,18.1623086 42.3880063,17.9636637 43.4488931,17.9636637 L44.2413328,17.9636637 L44.2413328,17.5706651 C44.2413328,17.2485335 44.1597274,16.9983484 43.996514,16.8201023 C43.8333007,16.6418561 43.5884844,16.5527344 43.2620577,16.5527344 C42.9656966,16.5527344 42.7348391,16.6225285 42.5694782,16.7621189 C42.4041173,16.9017092 42.3214381,17.1003541 42.3214381,17.3580594 L40.3757729,17.3580594 C40.3757729,16.9414358 40.4992549,16.5634737 40.7462224,16.2241618 C40.99319,15.8848498 41.3432344,15.6164109 41.7963662,15.4188368 C42.249498,15.2212628 42.7724171,15.1224772 43.3651393,15.1224772 C43.9149105,15.1224772 44.4023957,15.2148202 44.8276094,15.399509 C45.2528231,15.5841978 45.5856875,15.8612268 45.8262124,16.2306044 C46.0667373,16.599982 46.186998,17.0509594 46.186998,17.5835503 L46.186998,20.5020481 Z M43.0236815,20.8757189 C43.3071573,20.8757189 43.5562687,20.8145148 43.7710231,20.6921048 C43.9857775,20.5696948 44.1425458,20.4204427 44.2413328,20.2443441 L44.2413328,19.0782335 L43.5004339,19.0782335 C43.0494496,19.0782335 42.713364,19.1759453 42.492167,19.3713718 C42.27097,19.5667983 42.1603731,19.8212785 42.1603731,20.1348199 C42.1603731,20.3538694 42.2387573,20.5321128 42.395528,20.6695557 C42.5522987,20.8069985 42.7616811,20.8757189 43.0236815,20.8757189 Z M51.9681575,15.1224772 C52.6682569,15.1224772 53.2094299,15.3318596 53.5916927,15.7506307 C53.9739555,16.1694018 54.1650841,16.8533843 54.1650841,17.8025987 L54.1650841,22.2222222 L52.2194189,22.2222222 L52.2194189,17.7961561 C52.2194189,17.3838277 52.1313709,17.0971349 51.9552723,16.9360691 C51.7791737,16.7750033 51.5064397,16.6944716 51.1370622,16.6944716 C50.883652,16.6944716 50.663532,16.7481594 50.4766957,16.8555366 C50.2898594,16.9629138 50.1384598,17.1153871 50.0224924,17.3129612 L50.0224924,22.2222222 L48.0768272,22.2222222 L48.0768272,15.2513292 L49.900083,15.2513292 L49.964509,16.0566542 C50.209329,15.7517029 50.5013906,15.5197717 50.8407026,15.3608534 C51.1800145,15.2019352 51.5558291,15.1224772 51.9681575,15.1224772 Z M62.1173998,12.3263889 L62.1173998,22.2222222 L60.3650126,22.2222222 L60.2683736,21.4748806 C59.8130943,22.0590126 59.2246761,22.3510742 58.5031013,22.3510742 C57.9404447,22.3510742 57.4540333,22.1996746 57.0438524,21.8968709 C56.6336715,21.5940672 56.3222823,21.1763762 56.1096754,20.6437853 C55.8970686,20.1111943 55.7907667,19.5034485 55.7907667,18.8205295 L55.7907667,18.6852349 C55.7907667,17.9765454 55.8970686,17.353767 56.1096754,16.816881 C56.3222823,16.279995 56.6336715,15.8633777 57.0438524,15.5670166 C57.4540333,15.2706555 57.9447398,15.1224772 58.5159865,15.1224772 C59.17743,15.1224772 59.7293406,15.3737361 60.1717346,15.8762614 L60.1717346,12.3263889 L62.1173998,12.3263889 Z M58.9991815,20.7790799 C59.5446576,20.7790799 59.9355048,20.5471486 60.1717346,20.0832791 L60.1717346,17.3902724 C59.94839,16.9264028 59.5618379,16.6944716 59.0120667,16.6944716 C58.5696726,16.6944716 58.2464721,16.8748626 58.0424554,17.23565 C57.8384387,17.5964374 57.7364319,18.0796275 57.7364319,18.6852349 L57.7364319,18.8205295 C57.7364319,19.4175467 57.8362912,19.8932206 58.0360128,20.2475654 C58.2357344,20.6019101 58.5567874,20.7790799 58.9991815,20.7790799 Z" id="The-Easy-Way-to-Expa"></path>
                </g>
            </g>
        </g>
    </g>
</svg>